# xmcd
#
# Track frame offsets: 
#        150
#        14694
#        31124
#        53012
#        71596
#        89316
#        104862
#        123350
#        138631
#        155692
#        170449
#        187812
#        211071
#
# Disc length: 3061 seconds
#
# Revision: 15
# Processed by: cddbd v1.5.2PL0 Copyright (c) Steve Scherf et al.
# Submitted via: ExactAudioCopy v1.0b4
#
DISCID=b20bf30d
DTITLE=Zeze di Camargo and Luciano - Diferente
DYEAR=2006
DGENRE=Sertaneja
TTITLE0=Amor Que Fica
TTITLE1=Diz Pro Meu Olhar
TTITLE2=Foi Só Engano
TTITLE3=Minha História
TTITLE4=A Saudade é Uma Pedra
TTITLE5=Tempo Perdido
TTITLE6=Nunca Mais Ficar Sozinho
TTITLE7=Tô Com a Maior Moral
TTITLE8=Que Seja Bem-Vinda
TTITLE9=Essa Noite
TTITLE10=Olha Eu Aí
TTITLE11=Hey Jude
TTITLE12=How Can I Go On?
EXTD=
EXTT0=
EXTT1=
EXTT2=
EXTT3=
EXTT4=
EXTT5=
EXTT6=
EXTT7=
EXTT8=
EXTT9=
EXTT10=
EXTT11=
EXTT12=
PLAYORDER=
